<?xml version="1.0" standalone="no"?><!DOCTYPE svg PUBLIC "-//W3C//DTD SVG 1.1//EN" "http://www.w3.org/Graphics/SVG/1.1/DTD/svg11.dtd" ><svg version="1.1" xmlns="http://www.w3.org/2000/svg"><defs><font horiz-adv-x="0" id="font"><font-face ascent="777" bbox="-16 -223 1470 1063" cap-height="760" descent="-223" font-family="Commune" font-stretch="normal" font-style="normal" font-weight="400" units-per-em="1000" x-height="537" /><missing-glyph d="M0 0H500V760H0ZM421 710 250 429 79 710ZM450 657V103L280 380ZM220 380 50 103V657ZM250 331 421 50H79Z" horiz-adv-x="500" /><glyph glyph-name=".null" horiz-adv-x="0" /><glyph d="M161 0H235L166 760H81L12 0H86L97 144H150ZM124 489 145 212H102L123 489Z" glyph-name="A" horiz-adv-x="247" unicode="A" /><glyph d="M160 0H324V68H234V346H288V414H234V692H324V760H124L11 0H85L104 144H160ZM160 544V212H113L158 544Z" glyph-name="AE" horiz-adv-x="342" unicode="&#198;" /><glyph d="M200 788 261 849V911H213L190 824H154V788ZM160 0H324V68H234V346H288V414H234V692H324V760H124L11 0H85L104 144H160ZM160 544V212H113L158 544Z" glyph-name="AEacute" horiz-adv-x="356" unicode="&#508;" /><glyph d="M137 788 198 849V911H150L127 824H91V788ZM161 0H235L166 760H81L12 0H86L97 144H150ZM124 489 145 212H102L123 489Z" glyph-name="Aacute" horiz-adv-x="257" unicode="&#193;" /><glyph d="M99 787H147L184 824V885H144V825H102V885H62V824ZM161 0H235L166 760H81L12 0H86L97 144H150ZM124 489 145 212H102L123 489Z" glyph-name="Abreve" horiz-adv-x="257" unicode="&#258;" /><glyph d="M94 852H59V788H91L123 851L156 788H187V852H152L132 916H114ZM161 0H235L166 760H81L12 0H86L97 144H150ZM124 489 145 212H102L123 489Z" glyph-name="Acircumflex" horiz-adv-x="257" unicode="&#194;" /><glyph d="M64 795H108V863H64ZM140 795H184V863H140ZM161 0H235L166 760H81L12 0H86L97 144H150ZM124 489 145 212H102L123 489Z" glyph-name="Adieresis" horiz-adv-x="257" unicode="&#196;" /><glyph d="M108 788H154V824H118L95 911H47V849ZM161 0H235L166 760H81L12 0H86L97 144H150ZM124 489 145 212H102L123 489Z" glyph-name="Agrave" horiz-adv-x="257" unicode="&#192;" /><glyph d="M55 802H191V845H55ZM161 0H235L166 760H81L12 0H86L97 144H150ZM124 489 145 212H102L123 489Z" glyph-name="Amacron" horiz-adv-x="257" unicode="&#256;" /><glyph d="M216 -154H249V-76H198V0H240L171 760H86L17 0H91L102 144H155L166 0V-104ZM129 489 150 212H107L128 489Z" glyph-name="Aogonek" horiz-adv-x="257" unicode="&#260;" /><glyph d="M102 788H146L177 819V889L146 920H102L71 889V819ZM142 888V820H106V888ZM161 0H235L166 760H81L12 0H86L97 144H150ZM124 489 145 212H102L123 489Z" glyph-name="Aring" horiz-adv-x="257" unicode="&#197;" /><glyph d="M137 940 198 1001V1063H150L127 976H91V940ZM102 788H146L177 819V889L146 920H102L71 889V819ZM142 888V820H106V888ZM161 0H235L166 760H81L12 0H86L97 144H150ZM124 489 145 212H102L123 489Z" glyph-name="Aringacute" horiz-adv-x="257" unicode="&#506;" /><glyph d="M141 789H175L203 817V882H163V831H145L111 882H76L48 854V789H88V840H107ZM161 0H235L166 760H81L12 0H86L97 144H150ZM124 489 145 212H102L123 489Z" glyph-name="Atilde" horiz-adv-x="257" unicode="&#195;" /><glyph d="M25 0H162L216 54V346L181 381L216 415V706L162 760H25ZM142 692V414H99V692ZM142 346V68H99V346Z" glyph-name="B" horiz-adv-x="241" unicode="B" /><glyph d="M79 0H162L216 54V218H142V68H99V692H142V542H216V706L163 760H79L25 706V54Z" glyph-name="C" horiz-adv-x="241" unicode="C" /><glyph glyph-name="CR" horiz-adv-x="0" /><glyph d="M133 788 194 849V911H146L123 824H87V788ZM79 0H162L216 54V218H142V68H99V692H142V542H216V706L163 760H79L25 706V54Z" glyph-name="Cacute" horiz-adv-x="241" unicode="&#262;" /><glyph d="M149 844H184V908H152L120 845L87 908H56V844H91L111 780H129ZM79 0H162L216 54V218H142V68H99V692H142V542H216V706L163 760H79L25 706V54Z" glyph-name="Ccaron" horiz-adv-x="241" unicode="&#268;" /><glyph d="M75 -154H108L158 -104V0H162L216 54V218H142V68H99V692H142V542H216V706L163 760H79L25 706V54L79 0H126V-76H75Z" glyph-name="Ccedilla" horiz-adv-x="241" unicode="&#199;" /><glyph d="M91 852H56V788H88L120 851L153 788H184V852H149L129 916H111ZM79 0H162L216 54V218H142V68H99V692H142V542H216V706L163 760H79L25 706V54Z" glyph-name="Ccircumflex" horiz-adv-x="241" unicode="&#264;" /><glyph d="M91 806H159V872H91ZM79 0H162L216 54V218H142V68H99V692H142V542H216V706L163 760H79L25 706V54Z" glyph-name="Cdotaccent" horiz-adv-x="241" unicode="&#266;" /><glyph d="M25 0H161L216 54V706L162 760H25ZM142 692V68H99V692Z" glyph-name="D" horiz-adv-x="241" unicode="D" /><glyph d="M151 844H186V908H154L122 845L89 908H58V844H93L113 780H131ZM25 0H161L216 54V706L162 760H25ZM142 692V68H99V692Z" glyph-name="Dcaron" horiz-adv-x="256" unicode="&#270;" /><glyph d="M33 0H169L224 54V706L170 760H33V398H3V362H33ZM150 692V68H107V362H131V398H107V692Z" glyph-name="Dcroat" horiz-adv-x="249" unicode="&#272;" /><glyph d="M13 0H234L166 760H81ZM124 468 155 68H91L123 468Z" glyph-name="Delta" horiz-adv-x="247" unicode="&#8710;" /><glyph d="M25 0H189V68H99V346H153V414H99V692H189V760H25Z" glyph-name="E" horiz-adv-x="207" unicode="E" /><glyph d="M125 788 186 849V911H138L115 824H79V788ZM25 0H189V68H99V346H153V414H99V692H189V760H25Z" glyph-name="Eacute" horiz-adv-x="209" unicode="&#201;" /><glyph d="M80 787H128L165 824V885H125V825H83V885H43V824ZM25 0H189V68H99V346H153V414H99V692H189V760H25Z" glyph-name="Ebreve" horiz-adv-x="207" unicode="&#276;" /><glyph d="M136 844H171V908H139L107 845L74 908H43V844H78L98 780H116ZM25 0H189V68H99V346H153V414H99V692H189V760H25Z" glyph-name="Ecaron" horiz-adv-x="207" unicode="&#282;" /><glyph d="M79 852H44V788H76L108 851L141 788H172V852H137L117 916H99ZM25 0H189V68H99V346H153V414H99V692H189V760H25Z" glyph-name="Ecircumflex" horiz-adv-x="207" unicode="&#202;" /><glyph d="M47 795H91V863H47ZM123 795H167V863H123ZM25 0H189V68H99V346H153V414H99V692H189V760H25Z" glyph-name="Edieresis" horiz-adv-x="207" unicode="&#203;" /><glyph d="M73 806H141V872H73ZM25 0H189V68H99V346H153V414H99V692H189V760H25Z" glyph-name="Edotaccent" horiz-adv-x="207" unicode="&#278;" /><glyph d="M105 788H151V824H115L92 911H44V849ZM25 0H189V68H99V346H153V414H99V692H189V760H25Z" glyph-name="Egrave" horiz-adv-x="207" unicode="&#200;" /><glyph d="M36 802H172V845H36ZM25 0H189V68H99V346H153V414H99V692H189V760H25Z" glyph-name="Emacron" horiz-adv-x="207" unicode="&#274;" /><glyph d="M134 -223H188L243 -170V760H169V360H167L99 760H25V0H99V399H101L169 0V-155H134Z" glyph-name="Eng" horiz-adv-x="268" unicode="&#330;" /><glyph d="M176 -154H209V-76H158V0H199V68H109V346H163V414H109V692H199V760H35V0H126V-104Z" glyph-name="Eogonek" horiz-adv-x="207" unicode="&#280;" /><glyph d="M33 0H169L224 54V706L170 760H33V398H3V362H33ZM150 692V68H107V362H131V398H107V692Z" glyph-name="Eth" horiz-adv-x="249" unicode="&#208;" /><glyph d="M93 0H176L230 54V210H162V64H107V318H174V352H107V408H174V442H107V696H162V550H230V706L176 760H93L39 706V442H14V408H39V352H14V318H39V54Z" glyph-name="Euro" horiz-adv-x="256" unicode="&#8364;" /><glyph d="M91 0H174L228 54V210H160V64H105V318H172V352H105V408H172V442H105V696H160V550H228V706L174 760H91L37 706V442H12V408H37V352H12V318H37V54Z" glyph-name="Euro.LT" horiz-adv-x="251" unicode="&#57380;" /><glyph d="M25 0H99V346H153V414H99V692H189V760H25Z" glyph-name="F" horiz-adv-x="204" unicode="F" /><glyph d="M79 0H162L216 54V396H121V327H142V68H99V692H142V563H216V706L163 760H79L25 706V54Z" glyph-name="G" horiz-adv-x="241" unicode="G" /><glyph d="M96 787H144L181 824V885H141V825H99V885H59V824ZM79 0H162L216 54V396H121V327H142V68H99V692H142V563H216V706L163 760H79L25 706V54Z" glyph-name="Gbreve" horiz-adv-x="241" unicode="&#286;" /><glyph d="M90 852H55V788H87L119 851L152 788H183V852H148L128 916H110ZM79 0H162L216 54V396H121V327H142V68H99V692H142V563H216V706L163 760H79L25 706V54Z" glyph-name="Gcircumflex" horiz-adv-x="241" unicode="&#284;" /><glyph d="M79 0H162L216 54V396H121V327H142V68H99V692H142V563H216V706L163 760H79L25 706V54ZM118 -154 167 -106V-33H111V-119H75V-154Z" glyph-name="Gcommaaccent" horiz-adv-x="241" unicode="&#290;" /><glyph d="M86 806H154V872H86ZM79 0H162L216 54V396H121V327H142V68H99V692H142V563H216V706L163 760H79L25 706V54Z" glyph-name="Gdotaccent" horiz-adv-x="241" unicode="&#288;" /><glyph d="M142 0H216V760H142V414H99V760H25V0H99V346H142Z" glyph-name="H" horiz-adv-x="241" unicode="H" /><glyph d="M150 0H224V572H254V602H224V760H150V602H107V760H33V602H3V572H33V0H107V346H150ZM150 572V414H107V572Z" glyph-name="Hbar" horiz-adv-x="257" unicode="&#294;" /><glyph d="M90 852H55V788H87L119 851L152 788H183V852H148L128 916H110ZM142 0H216V760H142V414H99V760H25V0H99V346H142Z" glyph-name="Hcircumflex" horiz-adv-x="261" unicode="&#292;" /><glyph d="M25 0H99V760H25Z" glyph-name="I" horiz-adv-x="124" unicode="I" /><glyph d="M26 0H100V760H26ZM199 0H280L335 54V760H261V68H218V283H144V54Z" glyph-name="IJ" horiz-adv-x="360" unicode="&#306;" /><glyph d="M70 788 131 849V911H83L60 824H24V788ZM25 0H99V760H25Z" glyph-name="Iacute" horiz-adv-x="124" unicode="&#205;" /><glyph d="M38 787H86L123 824V885H83V825H41V885H1V824ZM25 0H99V760H25Z" glyph-name="Ibreve" horiz-adv-x="124" unicode="&#300;" /><glyph d="M33 852H-2V788H30L62 851L95 788H126V852H91L71 916H53ZM25 0H99V760H25Z" glyph-name="Icircumflex" horiz-adv-x="124" unicode="&#206;" /><glyph d="M2 795H46V863H2ZM78 795H122V863H78ZM25 0H99V760H25Z" glyph-name="Idieresis" horiz-adv-x="124" unicode="&#207;" /><glyph d="M28 806H96V872H28ZM25 0H99V760H25Z" glyph-name="Idotaccent" horiz-adv-x="124" unicode="&#304;" /><glyph d="M52 788H98V824H62L39 911H-9V849ZM25 0H99V760H25Z" glyph-name="Igrave" horiz-adv-x="124" unicode="&#204;" /><glyph d="M-6 802H130V845H-6ZM25 0H99V760H25Z" glyph-name="Imacron" horiz-adv-x="124" unicode="&#298;" /><glyph d="M75 -154H108V-76H57V0H99V760H25V-104Z" glyph-name="Iogonek" horiz-adv-x="124" unicode="&#302;" /><glyph d="M77 789H111L139 817V882H99V831H81L47 882H12L-16 854V789H24V840H43ZM25 0H99V760H25Z" glyph-name="Itilde" horiz-adv-x="124" unicode="&#296;" /><glyph d="M75 0H156L211 54V760H137V68H94V283H20V54Z" glyph-name="J" horiz-adv-x="236" unicode="J" /><glyph d="M144 852H109V788H141L173 851L206 788H237V852H202L182 916H164ZM75 0H156L211 54V760H137V68H94V283H20V54Z" glyph-name="Jcircumflex" horiz-adv-x="236" unicode="&#308;" /><glyph d="M158 0H231L156 379L231 760H158L101 465H99V760H25V0H99V295H101Z" glyph-name="K" horiz-adv-x="245" unicode="K" /><glyph d="M158 0H231L156 379L231 760H158L101 465H99V760H25V0H99V295H101ZM108 -154 157 -106V-33H101V-119H65V-154Z" glyph-name="Kcommaaccent" horiz-adv-x="257" unicode="&#310;" /><glyph d="M25 0H189V68H99V760H25Z" glyph-name="L" horiz-adv-x="204" unicode="L" /><glyph d="M90 788 151 849V911H103L80 824H44V788ZM25 0H189V68H99V760H25Z" glyph-name="Lacute" horiz-adv-x="204" unicode="&#313;" /><glyph d="M25 0H189V68H99V760H25ZM159 628 203 672V760H153V661H129V628Z" glyph-name="Lcaron" horiz-adv-x="207" unicode="&#317;" /><glyph d="M25 0H189V68H99V760H25ZM109 -154 158 -106V-33H102V-119H66V-154Z" glyph-name="Lcommaaccent" horiz-adv-x="204" unicode="&#315;" /><glyph d="M25 0H189V68H99V760H25ZM122 350H202V429H122Z" glyph-name="Ldot" horiz-adv-x="217" unicode="&#319;" /><glyph d="M35 0H199V68H109V365L175 457V517L109 425V760H35V323L-1 273V213L35 263Z" glyph-name="Lslash" horiz-adv-x="217" unicode="&#321;" /><glyph d="M248 0H322V760H206L174 398H172L141 760H25V0H99V544H101L148 0H199L246 544H248Z" glyph-name="M" horiz-adv-x="347" unicode="M" /><glyph d="M169 0H243V760H169V360H167L99 760H25V0H99V399H101Z" glyph-name="N" horiz-adv-x="268" unicode="N" /><glyph d="M155 788 216 849V911H168L145 824H109V788ZM169 0H243V760H169V360H167L99 760H25V0H99V399H101Z" glyph-name="Nacute" horiz-adv-x="268" unicode="&#323;" /><glyph d="M172 844H207V908H175L143 845L110 908H79V844H114L134 780H152ZM169 0H243V760H169V360H167L99 760H25V0H99V399H101Z" glyph-name="Ncaron" horiz-adv-x="268" unicode="&#327;" /><glyph d="M169 0H243V760H169V360H167L99 760H25V0H99V399H101ZM128 -154 177 -106V-33H121V-119H85V-154Z" glyph-name="Ncommaaccent" horiz-adv-x="268" unicode="&#325;" /><glyph d="M162 789H196L224 817V882H184V831H166L132 882H97L69 854V789H109V840H128ZM169 0H243V760H169V360H167L99 760H25V0H99V399H101Z" glyph-name="Ntilde" horiz-adv-x="268" unicode="&#209;" /><glyph d="M79 0H162L216 54V706L163 760H79L25 706V54ZM142 692V68H99V692Z" glyph-name="O" horiz-adv-x="241" unicode="O" /><glyph d="M80 0H306V68H216V346H269V414H216V692H306V760H80L25 707V53ZM142 692V68H99V692Z" glyph-name="OE" horiz-adv-x="324" unicode="&#338;" /><glyph d="M134 788 195 849V911H147L124 824H88V788ZM79 0H162L216 54V706L163 760H79L25 706V54ZM142 692V68H99V692Z" glyph-name="Oacute" horiz-adv-x="241" unicode="&#211;" /><glyph d="M94 787H142L179 824V885H139V825H97V885H57V824ZM79 0H162L216 54V706L163 760H79L25 706V54ZM142 692V68H99V692Z" glyph-name="Obreve" horiz-adv-x="241" unicode="&#334;" /><glyph d="M89 852H54V788H86L118 851L151 788H182V852H147L127 916H109ZM79 0H162L216 54V706L163 760H79L25 706V54ZM142 692V68H99V692Z" glyph-name="Ocircumflex" horiz-adv-x="241" unicode="&#212;" /><glyph d="M57 795H101V863H57ZM133 795H177V863H133ZM79 0H162L216 54V706L163 760H79L25 706V54ZM142 692V68H99V692Z" glyph-name="Odieresis" horiz-adv-x="241" unicode="&#214;" /><glyph d="M110 788H156V824H120L97 911H49V849ZM79 0H162L216 54V706L163 760H79L25 706V54ZM142 692V68H99V692Z" glyph-name="Ograve" horiz-adv-x="241" unicode="&#210;" /><glyph d="M70 788H94L127 821V874H85V817H70ZM148 788H172L205 821V874H163V817H148ZM79 0H162L216 54V706L163 760H79L25 706V54ZM142 692V68H99V692Z" glyph-name="Ohungarumlaut" horiz-adv-x="241" unicode="&#336;" /><glyph d="M47 802H183V845H47ZM79 0H162L216 54V706L163 760H79L25 706V54ZM142 692V68H99V692Z" glyph-name="Omacron" horiz-adv-x="241" unicode="&#332;" /><glyph d="M127 0H216V68H165V133L216 227V706L162 760H79L25 706V227L76 133V68H25V0H114V153L99 205V692H142V205L127 153Z" glyph-name="Omega" horiz-adv-x="241" unicode="&#8486;" /><glyph d="M61 0H162L216 54V706L179 743L181 760H79L25 706V54L63 16ZM145 694 97 293H96V694ZM145 466V66H96Z" glyph-name="Oslash" horiz-adv-x="241" unicode="&#216;" /><glyph d="M138 788 199 849V911H151L128 824H92V788ZM61 0H162L216 54V706L179 743L181 760H79L25 706V54L63 16ZM145 694 97 293H96V694ZM145 466V66H96Z" glyph-name="Oslashacute" horiz-adv-x="241" unicode="&#510;" /><glyph d="M133 789H167L195 817V882H155V831H137L103 882H68L40 854V789H80V840H99ZM79 0H162L216 54V706L163 760H79L25 706V54ZM142 692V68H99V692Z" glyph-name="Otilde" horiz-adv-x="241" unicode="&#213;" /><glyph d="M25 0H99V346H162L216 401V706L162 760H25ZM142 692V414H99V692Z" glyph-name="P" horiz-adv-x="238" unicode="P" /><glyph d="M154 -154H187V-76H136V0H162L216 54V706L163 760H79L25 706V54L79 0H104V-104ZM142 692V68H99V692Z" glyph-name="Q" horiz-adv-x="241" unicode="Q" /><glyph d="M142 0H216V346L181 381L216 415V706L162 760H25V0H99V346H142ZM142 692V414H99V692Z" glyph-name="R" horiz-adv-x="241" unicode="R" /><glyph d="M132 788 193 849V911H145L122 824H86V788ZM142 0H216V346L181 381L216 415V706L162 760H25V0H99V346H142ZM142 692V414H99V692Z" glyph-name="Racute" horiz-adv-x="241" unicode="&#340;" /><glyph d="M147 844H182V908H150L118 845L85 908H54V844H89L109 780H127ZM142 0H216V346L181 381L216 415V706L162 760H25V0H99V346H142ZM142 692V414H99V692Z" glyph-name="Rcaron" horiz-adv-x="241" unicode="&#344;" /><glyph d="M142 0H216V346L181 381L216 415V706L162 760H25V0H99V346H142ZM142 692V414H99V692ZM108 -154 157 -106V-33H101V-119H65V-154Z" glyph-name="Rcommaaccent" horiz-adv-x="241" unicode="&#342;" /><glyph d="M79 0H162L216 54V362L162 414H99V692H142V563H216V706L162 760H79L25 706V399L79 346H142V68H99V197H25V54Z" glyph-name="S" horiz-adv-x="241" unicode="S" /><glyph d="M138 788 199 849V911H151L128 824H92V788ZM79 0H162L216 54V362L162 414H99V692H142V563H216V706L162 760H79L25 706V399L79 346H142V68H99V197H25V54Z" glyph-name="Sacute" horiz-adv-x="241" unicode="&#346;" /><glyph d="M149 844H184V908H152L120 845L87 908H56V844H91L111 780H129ZM79 0H162L216 54V362L162 414H99V692H142V563H216V706L162 760H79L25 706V399L79 346H142V68H99V197H25V54Z" glyph-name="Scaron" horiz-adv-x="241" unicode="&#352;" /><glyph d="M75 -154H108L158 -104V0H162L216 54V362L162 414H99V692H142V563H216V706L162 760H79L25 706V399L79 346H142V68H99V197H25V54L79 0H126V-76H75Z" glyph-name="Scedilla" horiz-adv-x="241" unicode="&#350;" /><glyph d="M79 0H162L216 54V706L162 760H79L25 706V563H99V692H142V414H25V54ZM142 346V68H99V346Z" glyph-name="Schwa" horiz-adv-x="241" unicode="&#399;" /><glyph d="M91 852H56V788H88L120 851L153 788H184V852H149L129 916H111ZM79 0H162L216 54V362L162 414H99V692H142V563H216V706L162 760H79L25 706V399L79 346H142V68H99V197H25V54Z" glyph-name="Scircumflex" horiz-adv-x="241" unicode="&#348;" /><glyph d="M79 0H162L216 54V362L162 414H99V692H142V563H216V706L162 760H79L25 706V399L79 346H142V68H99V197H25V54ZM116 -154 165 -106V-33H109V-119H73V-154Z" glyph-name="Scommaaccent" horiz-adv-x="251" unicode="&#536;" /><glyph d="M74 0H148V692H207V760H15V692H74Z" glyph-name="T" horiz-adv-x="222" unicode="T" /><glyph d="M74 0H148V328H189V364H148V692H207V760H15V692H74V364H33V328H74Z" glyph-name="Tbar" horiz-adv-x="222" unicode="&#358;" /><glyph d="M141 844H176V908H144L112 845L79 908H48V844H83L103 780H121ZM74 0H148V692H207V760H15V692H74Z" glyph-name="Tcaron" horiz-adv-x="222" unicode="&#356;" /><glyph d="M74 0H148V692H207V760H15V692H74ZM100 -154 149 -106V-33H93V-119H57V-154Z" glyph-name="Tcommaaccent" horiz-adv-x="222" unicode="&#354;" /><glyph d="M99 173H162L216 228V533L162 587H99V760H25V0H99ZM142 519V241H99V519Z" glyph-name="Thorn" horiz-adv-x="239" unicode="&#222;" /><glyph d="M79 0H162L216 54V760H142V68H99V760H25V54Z" glyph-name="U" horiz-adv-x="241" unicode="U" /><glyph d="M133 788 194 849V911H146L123 824H87V788ZM79 0H162L216 54V760H142V68H99V760H25V54Z" glyph-name="Uacute" horiz-adv-x="241" unicode="&#218;" /><glyph d="M96 787H144L181 824V885H141V825H99V885H59V824ZM79 0H162L216 54V760H142V68H99V760H25V54Z" glyph-name="Ubreve" horiz-adv-x="241" unicode="&#364;" /><glyph d="M90 852H55V788H87L119 851L152 788H183V852H148L128 916H110ZM79 0H162L216 54V760H142V68H99V760H25V54Z" glyph-name="Ucircumflex" horiz-adv-x="241" unicode="&#219;" /><glyph d="M59 795H103V863H59ZM135 795H179V863H135ZM79 0H162L216 54V760H142V68H99V760H25V54Z" glyph-name="Udieresis" horiz-adv-x="241" unicode="&#220;" /><glyph d="M108 788H154V824H118L95 911H47V849ZM79 0H162L216 54V760H142V68H99V760H25V54Z" glyph-name="Ugrave" horiz-adv-x="241" unicode="&#217;" /><glyph d="M64 788H88L121 821V874H79V817H64ZM142 788H166L199 821V874H157V817H142ZM79 0H162L216 54V760H142V68H99V760H25V54Z" glyph-name="Uhungarumlaut" horiz-adv-x="241" unicode="&#368;" /><glyph d="M51 802H187V845H51ZM79 0H162L216 54V760H142V68H99V760H25V54Z" glyph-name="Umacron" horiz-adv-x="241" unicode="&#362;" /><glyph d="M154 -154H187V-76H136V0H162L216 54V760H142V68H99V760H25V54L79 0H104V-104Z" glyph-name="Uogonek" horiz-adv-x="241" unicode="&#370;" /><glyph d="M98 788H142L173 819V889L142 920H98L67 889V819ZM138 888V820H102V888ZM79 0H162L216 54V760H142V68H99V760H25V54Z" glyph-name="Uring" horiz-adv-x="241" unicode="&#366;" /><glyph d="M134 789H168L196 817V882H156V831H138L104 882H69L41 854V789H81V840H100ZM79 0H162L216 54V760H142V68H99V760H25V54Z" glyph-name="Utilde" horiz-adv-x="241" unicode="&#360;" /><glyph d="M81 0H166L234 760H161L124 292H123L86 760H13Z" glyph-name="V" horiz-adv-x="247" unicode="V" /><glyph d="M124 292H123L86 760H13L81 0H166L228 692H263V0H337V692H398V0H472V346H526V414H472V692H562V760H161Z" glyph-name="VTF" horiz-adv-x="577" /><glyph d="M215 0H294L360 760H286L249 292H247L217 760H155L125 292H123L86 760H12L77 0H157L185 402H187Z" glyph-name="W" horiz-adv-x="372" unicode="W" /><glyph d="M209 788 270 849V911H222L199 824H163V788ZM215 0H294L360 760H286L249 292H247L217 760H155L125 292H123L86 760H12L77 0H157L185 402H187Z" glyph-name="Wacute" horiz-adv-x="384" unicode="&#7810;" /><glyph d="M162 852H127V788H159L191 851L224 788H255V852H220L200 916H182ZM215 0H294L360 760H286L249 292H247L217 760H155L125 292H123L86 760H12L77 0H157L185 402H187Z" glyph-name="Wcircumflex" horiz-adv-x="384" unicode="&#372;" /><glyph d="M132 795H176V863H132ZM208 795H252V863H208ZM215 0H294L360 760H286L249 292H247L217 760H155L125 292H123L86 760H12L77 0H157L185 402H187Z" glyph-name="Wdieresis" horiz-adv-x="384" unicode="&#7812;" /><glyph d="M174 788H220V824H184L161 911H113V849ZM215 0H294L360 760H286L249 292H247L217 760H155L125 292H123L86 760H12L77 0H157L185 402H187Z" glyph-name="Wgrave" horiz-adv-x="384" unicode="&#7808;" /><glyph d="M165 0H239L178 380L239 760H165L125 491H124L84 760H10L71 380L10 0H84L124 268H125Z" glyph-name="X" horiz-adv-x="249" unicode="X" /><glyph d="M88 0H162V283L239 760H167L126 484H124L83 760H11L88 283Z" glyph-name="Y" horiz-adv-x="251" unicode="Y" /><glyph d="M139 788 200 849V911H152L129 824H93V788ZM88 0H162V283L239 760H167L126 484H124L83 760H11L88 283Z" glyph-name="Yacute" horiz-adv-x="260" unicode="&#221;" /><glyph d="M94 852H59V788H91L123 851L156 788H187V852H152L132 916H114ZM88 0H162V283L239 760H167L126 484H124L83 760H11L88 283Z" glyph-name="Ycircumflex" horiz-adv-x="260" unicode="&#374;" /><glyph d="M64 795H108V863H64ZM140 795H184V863H140ZM88 0H162V283L239 760H167L126 484H124L83 760H11L88 283Z" glyph-name="Ydieresis" horiz-adv-x="260" unicode="&#376;" /><glyph d="M110 788H156V824H120L97 911H49V849ZM88 0H162V283L239 760H167L126 484H124L83 760H11L88 283Z" glyph-name="Ygrave" horiz-adv-x="260" unicode="&#7922;" /><glyph d="M16 0H201V68H89L201 692V760H16V692H129L16 68Z" glyph-name="Z" horiz-adv-x="217" unicode="Z" /><glyph d="M128 788 189 849V911H141L118 824H82V788ZM16 0H201V68H89L201 692V760H16V692H129L16 68Z" glyph-name="Zacute" horiz-adv-x="237" unicode="&#377;" /><glyph d="M147 844H182V908H150L118 845L85 908H54V844H89L109 780H127ZM16 0H201V68H89L201 692V760H16V692H129L16 68Z" glyph-name="Zcaron" horiz-adv-x="217" unicode="&#381;" /><glyph d="M89 806H157V872H89ZM16 0H201V68H89L201 692V760H16V692H129L16 68Z" glyph-name="Zdotaccent" horiz-adv-x="217" unicode="&#379;" /><glyph d="M130 0H198V488L149 537H71L22 488V387H90V473H130V301H71L22 252V38L60 0H103L130 27ZM130 237V64H90V237Z" glyph-name="a" horiz-adv-x="220" unicode="a" /><glyph d="M126 565 187 626V688H139L116 601H80V565ZM130 0H198V488L149 537H71L22 488V387H90V473H130V301H71L22 252V38L60 0H103L130 27ZM130 237V64H90V237Z" glyph-name="aacute" horiz-adv-x="220" unicode="&#225;" /><glyph d="M92 564H140L177 601V662H137V602H95V662H55V601ZM130 0H198V488L149 537H71L22 488V387H90V473H130V301H71L22 252V38L60 0H103L130 27ZM130 237V64H90V237Z" glyph-name="abreve" horiz-adv-x="220" unicode="&#259;" /><glyph d="M85 629H50V565H82L114 628L147 565H178V629H143L123 693H105ZM130 0H198V488L149 537H71L22 488V387H90V473H130V301H71L22 252V38L60 0H103L130 27ZM130 237V64H90V237Z" glyph-name="acircumflex" horiz-adv-x="220" unicode="&#226;" /><glyph d="M97 565 158 626V688H110L87 601H51V565Z" glyph-name="acute" horiz-adv-x="210" unicode="&#180;" /><glyph d="M55 572H99V640H55ZM131 572H175V640H131ZM130 0H198V488L149 537H71L22 488V387H90V473H130V301H71L22 252V38L60 0H103L130 27ZM130 237V64H90V237Z" glyph-name="adieresis" horiz-adv-x="220" unicode="&#228;" /><glyph d="M257 0 306 48V150H238V64H198V237H306V489L257 537H194L164 507L135 537H71L22 489V387H90V473H130V301H71L22 253V48L71 0H120L149 30L178 0ZM238 473V301H198V473ZM130 237V64H90V237Z" glyph-name="ae" horiz-adv-x="328" unicode="&#230;" /><glyph d="M186 565 247 626V688H199L176 601H140V565ZM257 0 306 48V150H238V64H198V237H306V489L257 537H194L164 507L135 537H71L22 489V387H90V473H130V301H71L22 253V48L71 0H120L149 30L178 0ZM238 473V301H198V473ZM130 237V64H90V237Z" glyph-name="aeacute" horiz-adv-x="328" unicode="&#509;" /><glyph d="M103 565H149V601H113L90 688H42V626ZM130 0H198V488L149 537H71L22 488V387H90V473H130V301H71L22 252V38L60 0H103L130 27ZM130 237V64H90V237Z" glyph-name="agrave" horiz-adv-x="220" unicode="&#224;" /><glyph d="M48 579H184V622H48ZM130 0H198V488L149 537H71L22 488V387H90V473H130V301H71L22 252V38L60 0H103L130 27ZM130 237V64H90V237Z" glyph-name="amacron" horiz-adv-x="220" unicode="&#257;" /><glyph d="M196 0H241V64H198V523H241V583H186L130 528V412H90V696H154V760H82L22 700V416L58 380L22 344V49L71 0H130L162 32ZM130 348V64H90V348Z" glyph-name="ampersand" horiz-adv-x="257" unicode="&amp;" /><glyph d="M180 -154H213V-76H162V0H198V488L150 537H71L22 488V387H90V473H130V301H71L22 252V38L60 0H103L130 27V-104ZM130 237V64H90V237Z" glyph-name="aogonek" horiz-adv-x="220" unicode="&#261;" /><glyph d="M1353 96 1470 209V424L1353 537H1148L1031 424V379H915L712 582V760H848V876H356L25 545V0H138V155H305L489 345V760H599V218H551L435 105V-110L551 -223H757L873 -110V105L757 218H712V416H715L876 254H1031V209L1148 96Z" glyph-name="apple" horiz-adv-x="1490" /><glyph d="M142 338H189L231 381V442H166V401H150L109 442H63L20 399V338H85V379H101ZM142 209H189L231 252V313H166V272H150L109 313H63L20 270V209H85V250H101Z" glyph-name="approxequal" horiz-adv-x="251" unicode="&#8776;" /><glyph d="M92 565H136L167 596V666L136 697H92L61 666V596ZM132 665V597H96V665ZM130 0H198V488L149 537H71L22 488V387H90V473H130V301H71L22 252V38L60 0H103L130 27ZM130 237V64H90V237Z" glyph-name="aring" horiz-adv-x="220" unicode="&#229;" /><glyph d="M126 720 187 781V843H139L116 756H80V720ZM92 565H136L167 596V666L136 697H92L61 666V596ZM132 665V597H96V665ZM130 0H198V488L149 537H71L22 488V387H90V473H130V301H71L22 252V38L60 0H103L130 27ZM130 237V64H90V237Z" glyph-name="aringacute" horiz-adv-x="220" unicode="&#507;" /><glyph d="M101 67 135 33 169 67V760H101ZM182 0H250V74H203L135 6L67 74H20V0H88L126 -79H144Z" glyph-name="arrowdown" horiz-adv-x="270" unicode="&#8595;" /><glyph d="M120 109H169L658 600L610 648L120 158ZM130 53 178 5 230 57 197 90H101V187L68 220L15 168L63 119L35 37L47 24Z" glyph-name="arrowdownleft" horiz-adv-x="673" unicode="&#8601;" /><glyph d="M504 109H553V158L63 648L15 600ZM543 53 626 24 638 37 610 119 658 168 605 220 572 187V90H476L443 57L495 5Z" glyph-name="arrowdownright" horiz-adv-x="673" unicode="&#8600;" /><glyph d="M99 210H173V257L105 325L173 393V440H99V372L20 334V316L99 278ZM166 291H859V359H166L132 325Z" glyph-name="arrowleft" horiz-adv-x="884" unicode="&#8592;" /><glyph d="M711 210H785V278L864 316V334L785 372V440H711V393L779 325L711 257ZM25 291H718L752 325L718 359H25Z" glyph-name="arrowright" horiz-adv-x="884" unicode="&#8594;" /><glyph d="M203 686H250V760H182L144 839H126L88 760H20V686H67L135 754ZM101 0H169V693L135 727L101 693Z" glyph-name="arrowup" horiz-adv-x="270" unicode="&#8593;" /><glyph d="M68 440 101 473V570H197L230 603L178 655L130 607L47 636L35 623L63 541L15 492ZM120 502 610 12 658 60 169 551H120Z" glyph-name="arrowupleft" horiz-adv-x="673" unicode="&#8598;" /><glyph d="M572 473 605 440 658 492 610 541 638 623 626 636 543 607 495 655 443 603 476 570H572ZM15 60 63 12 553 502V551H504Z" glyph-name="arrowupright" horiz-adv-x="673" unicode="&#8599;" /><glyph d="M118 449H178L132 760H61L16 449H76L96 588Z" glyph-name="asciicircum" horiz-adv-x="194" unicode="^" /><glyph d="M142 273H189L231 316V377H166V336H150L109 377H63L20 334V273H85V314H101Z" glyph-name="asciitilde" horiz-adv-x="251" unicode="~" /><glyph d="M124 621V760H89V621L28 701V643L84 571L28 498V440L89 520V380H124V520L185 440V498L129 571L185 643V701Z" glyph-name="asterisk" horiz-adv-x="213" unicode="*" /><glyph d="M360 0 421 60V700L361 760H95L35 700V-163L95 -223H269V-159H103V696H353V64H316V488L267 537H189L140 488V387H208V473H248V301H189L140 252V38L179 0H236L269 33L302 0ZM248 237V64H208V237Z" glyph-name="at" horiz-adv-x="456" unicode="@" /><glyph d="M112 550V472H165V538H196V405H150L112 367V202L142 172H186L212 198L237 172H282L330 219V713L282 760H78L31 713V47L78 0H212V46H84V711H277V222H248V550L210 588H150ZM196 356V222H165V356Z" glyph-name="at.cap" horiz-adv-x="361" unicode="&#57484;" /><glyph d="M130 566H164L192 594V659H152V608H134L100 659H65L37 631V566H77V617H96ZM130 0H198V488L149 537H71L22 488V387H90V473H130V301H71L22 252V38L60 0H103L130 27ZM130 237V64H90V237Z" glyph-name="atilde" horiz-adv-x="220" unicode="&#227;" /><glyph d="M117 0H160L198 38V499L160 537H117L90 510V760H22V0H90V27ZM130 473V64H90V473Z" glyph-name="b" horiz-adv-x="220" unicode="b" /><glyph d="M142 -223H217L75 760H0Z" glyph-name="backslash" horiz-adv-x="217" unicode="\" /><glyph d="M30 -223H104V760H30Z" glyph-name="bar" horiz-adv-x="134" unicode="|" /><glyph d="M120 -223H169V-155H133V222L86 269L133 316V692H169V760H120L59 699V299H15V239H59V-162Z" glyph-name="braceleft" horiz-adv-x="179" unicode="{" /><glyph d="M60 -223 121 -162V239H165V299H121V699L60 760H11V692H47V316L94 269L47 222V-155H11V-223Z" glyph-name="braceright" horiz-adv-x="179" unicode="}" /><glyph d="M30 -223H140V-156H104V692H140V760H30Z" glyph-name="bracketleft" horiz-adv-x="150" unicode="[" /><glyph d="M10 -223H120V760H10V693H46V-155H10Z" glyph-name="bracketright" horiz-adv-x="150" unicode="]" /><glyph d="M81 564H129L166 601V662H126V602H84V662H44V601Z" glyph-name="breve" horiz-adv-x="210" unicode="&#728;" /><glyph d="M30 346H104V760H30ZM30 -223H104V191H30Z" glyph-name="brokenbar" horiz-adv-x="134" unicode="&#166;" /><glyph d="M161 134 215 188V348L161 402H79L25 348V188L79 134Z" glyph-name="bullet" horiz-adv-x="240" unicode="&#8226;" /><glyph d="M71 0H149L198 49V165H130V64H90V473H130V372H198V488L149 537H71L22 488V49Z" glyph-name="c" horiz-adv-x="220" unicode="c" /><glyph d="M126 565 187 626V688H139L116 601H80V565ZM71 0H149L198 49V165H130V64H90V473H130V372H198V488L149 537H71L22 488V49Z" glyph-name="cacute" horiz-adv-x="220" unicode="&#263;" /><glyph d="M134 621H169V685H137L105 622L72 685H41V621H76L96 557H114Z" glyph-name="caron" horiz-adv-x="210" unicode="&#711;" /><glyph d="M98 628 142 672V760H92V661H68V628Z" glyph-name="caronSlovak" horiz-adv-x="210" /><glyph d="M143 621H178V685H146L114 622L81 685H50V621H85L105 557H123ZM71 0H149L198 49V165H130V64H90V473H130V372H198V488L149 537H71L22 488V49Z" glyph-name="ccaron" horiz-adv-x="220" unicode="&#269;" /><glyph d="M63 -154H96L146 -104V0H149L198 49V165H130V64H90V473H130V372H198V488L149 537H71L22 488V49L71 0H114V-76H63Z" glyph-name="ccedilla" horiz-adv-x="220" unicode="&#231;" /><glyph d="M85 629H50V565H82L114 628L147 565H178V629H143L123 693H105ZM71 0H149L198 49V165H130V64H90V473H130V372H198V488L149 537H71L22 488V49Z" glyph-name="ccircumflex" horiz-adv-x="220" unicode="&#265;" /><glyph d="M80 583H148V649H80ZM71 0H149L198 49V165H130V64H90V473H130V372H198V488L149 537H71L22 488V49Z" glyph-name="cdotaccent" horiz-adv-x="220" unicode="&#267;" /><glyph d="M64 -154H97L147 -104V11H115V-76H64Z" glyph-name="cedilla" horiz-adv-x="210" unicode="&#184;" /><glyph d="M96 -67H124V0H152L201 48V162H141V57H124V480H141V375H201V489L152 537H124V604H96V537H68L19 489V48L68 0H96ZM96 480V57H79V480Z" glyph-name="cent" horiz-adv-x="218" unicode="&#162;" /><glyph d="M106 -67H134V0H162L211 48V162H151V57H134V480H151V375H211V489L162 537H134V604H106V537H78L29 489V48L78 0H106ZM106 480V57H89V480Z" glyph-name="cent.LT" horiz-adv-x="251" unicode="&#57500;" /><glyph d="M76 629H41V565H73L105 628L138 565H169V629H134L114 693H96Z" glyph-name="circumflex" horiz-adv-x="210" unicode="&#710;" /><glyph d="M25 458H105V537H25ZM25 0H105V79H25Z" glyph-name="colon" horiz-adv-x="130" unicode=":" /><glyph d="M23 -151 102 -72V68H28V-110H-16V-151Z" glyph-name="comma" horiz-adv-x="127" unicode="," /><glyph d="M102 -154 151 -106V-33H95V-119H59V-154Z" glyph-name="commaaccent" horiz-adv-x="210" unicode="&#57508;" /><glyph d="M59 570H115V656H151V691H108L59 643Z" glyph-name="commaaccent.alt" horiz-adv-x="210" unicode="&#57509;" /><glyph d="M88 0H223L280 57V703L223 760H88L31 703V57ZM236 721V39H75V721ZM131 172H180L213 205V295H168V211H143V549H168V465H213V555L180 588H131L98 555V205Z" glyph-name="copyright" horiz-adv-x="311" unicode="&#169;" /><glyph d="M175 250 214 211 234 232 195 270 212 287V472L195 489L234 528L214 547L175 509L158 526H93L76 509L37 548L17 528L56 489L39 472V287L56 270L17 232L37 211L76 250L93 233H158ZM149 454V305L136 292H115L102 305V454L115 467H136Z" glyph-name="currency" horiz-adv-x="251" unicode="&#164;" /><glyph d="M130 0H198V760H130V510L103 537H60L22 499V38L60 0H103L130 27ZM130 473V64H90V473Z" glyph-name="d" horiz-adv-x="220" unicode="d" /><glyph d="M90 -223H158V473H228V537H158V760H90V537H20V473H90Z" glyph-name="dagger" horiz-adv-x="248" unicode="&#8224;" /><glyph d="M90 -223H158V0H228V64H158V473H228V537H158V760H90V537H20V473H90V64H20V0H90Z" glyph-name="daggerdbl" horiz-adv-x="248" unicode="&#8225;" /><glyph d="M130 0H198V760H130V510L103 537H60L22 499V38L60 0H103L130 27ZM249 628 293 672V760H243V661H219V628ZM130 473V64H90V473Z" glyph-name="dcaron" horiz-adv-x="220" unicode="&#271;" /><glyph d="M130 0H198V632H229V665H198V760H130V665H82V632H130V510L103 537H60L22 499V38L60 0H103L130 27ZM130 473V64H90V473Z" glyph-name="dcroat" horiz-adv-x="220" unicode="&#273;" /><glyph d="M71 380H134L176 422V718L134 760H71L29 718V422ZM120 707V433H85V707Z" glyph-name="degree" horiz-adv-x="205" unicode="&#176;" /><glyph d="M45 572H89V640H45ZM121 572H165V640H121Z" glyph-name="dieresis" horiz-adv-x="210" unicode="&#168;" /><glyph d="M92 396H159V463H92ZM25 293H226V357H25ZM92 187H159V254H92Z" glyph-name="divide" horiz-adv-x="251" unicode="&#247;" /><glyph d="M106 -69H135V0H162L216 54V358L162 412H135V696H158V563H216V706L162 760H135V829H106V760H79L25 706V402L79 348H106V64H83V197H25V54L79 0H106ZM106 696V412H83V696ZM158 348V64H135V348Z" glyph-name="dollar" horiz-adv-x="241" unicode="$" /><glyph d="M111 -69H140V0H167L221 54V358L167 412H140V696H163V563H221V706L167 760H140V829H111V760H84L30 706V402L84 348H111V64H88V197H30V54L84 0H111ZM111 696V412H88V696ZM163 348V64H140V348Z" glyph-name="dollar.LT" horiz-adv-x="251" unicode="&#57513;" /><glyph d="M71 583H139V649H71Z" glyph-name="dotaccent" horiz-adv-x="210" unicode="&#729;" /><glyph d="M22 0H90V537H22Z" glyph-name="dotlessi" horiz-adv-x="112" unicode="&#305;" /><glyph d="M47 -223 100 -172V537H32V-159H-4V-223Z" glyph-name="dotlessj" horiz-adv-x="122" unicode="&#567;" /><glyph d="M71 0H149L198 49V150H130V64H90V237H198V488L149 537H71L22 488V49ZM130 473V301H90V473Z" glyph-name="e" horiz-adv-x="220" unicode="e" /><glyph d="M126 565 187 626V688H139L116 601H80V565ZM71 0H149L198 49V150H130V64H90V237H198V488L149 537H71L22 488V49ZM130 473V301H90V473Z" glyph-name="eacute" horiz-adv-x="220" unicode="&#233;" /><glyph d="M90 564H138L175 601V662H135V602H93V662H53V601ZM71 0H149L198 49V150H130V64H90V237H198V488L149 537H71L22 488V49ZM130 473V301H90V473Z" glyph-name="ebreve" horiz-adv-x="220" unicode="&#277;" /><glyph d="M143 621H178V685H146L114 622L81 685H50V621H85L105 557H123ZM71 0H149L198 49V150H130V64H90V237H198V488L149 537H71L22 488V49ZM130 473V301H90V473Z" glyph-name="ecaron" horiz-adv-x="220" unicode="&#283;" /><glyph d="M85 629H50V565H82L114 628L147 565H178V629H143L123 693H105ZM71 0H149L198 49V150H130V64H90V237H198V488L149 537H71L22 488V49ZM130 473V301H90V473Z" glyph-name="ecircumflex" horiz-adv-x="220" unicode="&#234;" /><glyph d="M55 572H99V640H55ZM131 572H175V640H131ZM71 0H149L198 49V150H130V64H90V237H198V488L149 537H71L22 488V49ZM130 473V301H90V473Z" glyph-name="edieresis" horiz-adv-x="220" unicode="&#235;" /><glyph d="M80 583H148V649H80ZM71 0H149L198 49V150H130V64H90V237H198V488L149 537H71L22 488V49ZM130 473V301H90V473Z" glyph-name="edotaccent" horiz-adv-x="220" unicode="&#279;" /><glyph d="M103 565H149V601H113L90 688H42V626ZM71 0H149L198 49V150H130V64H90V237H198V488L149 537H71L22 488V49ZM130 473V301H90V473Z" glyph-name="egrave" horiz-adv-x="220" unicode="&#232;" /><glyph d="M80 0H161L216 53V346L181 381L216 415V707L162 760H79L25 707V415L60 381L25 346V53ZM142 692V414H99V692ZM142 346V68H99V346Z" glyph-name="eight" horiz-adv-x="241" unicode="8" /><glyph d="M85 0H166L221 53V346L186 381L221 415V707L167 760H84L30 707V415L65 381L30 346V53ZM147 692V414H104V692ZM147 346V68H104V346Z" glyph-name="eight.LT" horiz-adv-x="251" unicode="&#57520;" /><glyph d="M25 0H105V79H25ZM156 0H236V79H156ZM287 0H367V79H287Z" glyph-name="ellipsis" horiz-adv-x="392" unicode="&#8230;" /><glyph d="M46 579H182V622H46ZM71 0H149L198 49V150H130V64H90V237H198V488L149 537H71L22 488V49ZM130 473V301H90V473Z" glyph-name="emacron" horiz-adv-x="220" unicode="&#275;" /><glyph d="M25 291H399V359H25Z" glyph-name="emdash" horiz-adv-x="424" unicode="&#8212;" /><glyph d="M30 291H231V359H30Z" glyph-name="endash" horiz-adv-x="261" unicode="&#8211;" /><glyph d="M117 -223H157L206 -174V499L168 537H125L98 510V537H30V0H98V473H138V-159H117Z" glyph-name="eng" horiz-adv-x="236" unicode="&#331;" /><glyph d="M162 -154H195V-76H144V0H149L198 49V150H130V64H90V237H198V488L149 537H71L22 488V49L71 0H112V-104ZM130 473V301H90V473Z" glyph-name="eogonek" horiz-adv-x="220" unicode="&#281;" /><glyph d="M25 359H226V423H25ZM25 227H226V291H25Z" glyph-name="equal" horiz-adv-x="251" unicode="=" /><glyph d="M595 760H215L25 570V190L215 0H595L785 190V229H576V48H235V357H785V570ZM235 712H576V405H235Z" glyph-name="estimated" horiz-adv-x="810" unicode="&#8494;" /><glyph d="M149 0 198 48V618L145 719L197 786H159L125 742L54 776V698L81 685L31 620H69L101 662L130 603V510L103 537H64L22 496V48L71 0ZM130 473V64H90V473Z" glyph-name="eth" horiz-adv-x="220" unicode="&#240;" /><glyph d="M55 187H75L102 537V760H28V537ZM25 0H105V79H25Z" glyph-name="exclam" horiz-adv-x="130" unicode="!" /><glyph d="M25 458H105V537H25ZM28 -223H102V0L75 350H55L28 0Z" glyph-name="exclamdown" horiz-adv-x="130" unicode="&#161;" /><glyph d="M25 681H105V760H25ZM28 0H102V223L75 573H55L28 223Z" glyph-name="exclamdown.cap" horiz-adv-x="130" /><glyph d="M33 0H101V473H137V537H101V694H137V760H86L33 709V537H14V473H33Z" glyph-name="f" horiz-adv-x="150" unicode="f" /><glyph d="M79 0H162L216 53V403L170 448H123L99 424V692H216V760H25V313H99V380H142V68H99V190H25V53Z" glyph-name="five" horiz-adv-x="241" unicode="5" /><glyph d="M84 0H167L221 53V403L175 448H128L104 424V692H221V760H30V313H104V380H147V68H104V190H30V53Z" glyph-name="five.LT" horiz-adv-x="251" unicode="&#57536;" /><glyph d="M-10 -223H43L94 -172L130 363H188V397H133L153 696H188V760H135L84 709L63 397H18V363H60L25 -159H-10Z" glyph-name="florin" horiz-adv-x="200" unicode="&#402;" /><glyph d="M10 -223H63L114 -172L150 363H208V397H153L173 696H208V760H155L104 709L83 397H38V363H80L45 -159H10Z" glyph-name="florin.LT" horiz-adv-x="251" unicode="&#57543;" /><glyph d="M124 0H198V186H224V254H198V760H112L8 254V186H124ZM124 516V254H72Z" glyph-name="four" horiz-adv-x="232" unicode="4" /><glyph d="M131 0H205V186H231V254H205V760H119L15 254V186H131ZM131 516V254H79Z" glyph-name="four.LT" horiz-adv-x="251" unicode="&#57547;" /><glyph d="M96 380H141V472H157V517H141V760H80L24 517V472H96ZM96 651V517H64Z" glyph-name="foursuperior" horiz-adv-x="176" unicode="&#8308;" /><glyph d="M4 0H72L252 760H184Z" glyph-name="fraction" horiz-adv-x="255" unicode="&#8260;" /><glyph d="M71 -223H149L198 -174V537H130V510L103 537H60L22 499V38L60 0H103L130 27V-159H90V-73H22V-174ZM130 473V64H90V473Z" glyph-name="g" horiz-adv-x="220" unicode="g" /><glyph d="M92 564H140L177 601V662H137V602H95V662H55V601ZM71 -223H149L198 -174V537H130V510L103 537H60L22 499V38L60 0H103L130 27V-159H90V-73H22V-174ZM130 473V64H90V473Z" glyph-name="gbreve" horiz-adv-x="220" unicode="&#287;" /><glyph d="M86 629H51V565H83L115 628L148 565H179V629H144L124 693H106ZM71 -223H149L198 -174V537H130V510L103 537H60L22 499V38L60 0H103L130 27V-159H90V-73H22V-174ZM130 473V64H90V473Z" glyph-name="gcircumflex" horiz-adv-x="220" unicode="&#285;" /><glyph d="M80 570H136V656H172V691H129L80 643ZM71 -223H149L198 -174V537H130V510L103 537H60L22 499V38L60 0H103L130 27V-159H90V-73H22V-174ZM130 473V64H90V473Z" glyph-name="gcommaaccent" horiz-adv-x="220" unicode="&#291;" /><glyph d="M87 583H155V649H87ZM71 -223H149L198 -174V537H130V510L103 537H60L22 499V38L60 0H103L130 27V-159H90V-73H22V-174ZM130 473V64H90V473Z" glyph-name="gdotaccent" horiz-adv-x="220" unicode="&#289;" /><glyph d="M107 0H148L198 50V393L160 431L198 469V709L147 760H73L22 709V0H90V696H130V462H107V399H130V64H107Z" glyph-name="germandbls" horiz-adv-x="220" unicode="&#223;" /><glyph d="M79 0H162L216 54V362L162 414H99V692H142V563H216V706L162 760H79L25 706V399L79 346H142V68H99V197H25V54ZM320 0H403L457 54V362L403 414H340V692H383V563H457V706L403 760H320L266 706V399L320 346H383V68H340V197H266V54Z" glyph-name="germandbls.cap" horiz-adv-x="482" unicode="&#57553;" /><glyph d="M113 565H159V601H123L100 688H52V626Z" glyph-name="grave" horiz-adv-x="210" unicode="`" /><glyph d="M28 135 281 293V356L28 514V439L209 325V324L28 210Z" glyph-name="greater" horiz-adv-x="304" unicode="&gt;" /><glyph d="M28 199 281 356V419L28 576V501L209 388V387L28 274ZM28 69 281 226V301L28 144Z" glyph-name="greaterequal" horiz-adv-x="304" unicode="&#8805;" /><glyph d="M63 94H137V199L74 269L137 339V444H63V312L10 282V256L63 226ZM180 94H254V199L191 269L254 339V444H180V312L127 282V256L180 226Z" glyph-name="guillemotleft" horiz-adv-x="279" unicode="&#171;" /><glyph d="M25 94H99V226L152 256V282L99 312V444H25V339L88 269L25 199ZM142 94H216V226L269 256V282L216 312V444H142V339L205 269L142 199Z" glyph-name="guillemotright" horiz-adv-x="279" unicode="&#187;" /><glyph d="M63 94H137V199L74 269L137 339V444H63V312L10 282V256L63 226Z" glyph-name="guilsinglleft" horiz-adv-x="162" unicode="&#8249;" /><glyph d="M25 94H99V226L152 256V282L99 312V444H25V339L88 269L25 199Z" glyph-name="guilsinglright" horiz-adv-x="162" unicode="&#8250;" /><glyph d="M130 0H198V499L160 537H117L90 510V760H22V0H90V473H130Z" glyph-name="h" horiz-adv-x="220" unicode="h" /><glyph d="M130 0H198V499L160 537H117L90 510V632H138V665H90V760H22V665H-9V632H22V0H90V473H130Z" glyph-name="hbar" horiz-adv-x="220" unicode="&#295;" /><glyph d="M36 852H1V788H33L65 851L98 788H129V852H94L74 916H56ZM130 0H198V499L160 537H117L90 510V760H22V0H90V473H130Z" glyph-name="hcircumflex" horiz-adv-x="220" unicode="&#293;" /><glyph d="M191 -87 353 341V714L307 760H245L191 616L137 760H75L29 714V341Z" glyph-name="heart" horiz-adv-x="383" unicode="&#9829;" /><glyph d="M37 565H61L94 598V651H52V594H37ZM115 565H139L172 598V651H130V594H115Z" glyph-name="hungarumlaut" horiz-adv-x="210" unicode="&#733;" /><glyph d="M25 290H185V358H25Z" glyph-name="hyphen" horiz-adv-x="210" unicode="-" /><glyph d="M22 583H90V649H22ZM22 0H90V537H22Z" glyph-name="i" horiz-adv-x="112" unicode="i" /><glyph d="M69 565 130 626V688H82L59 601H23V565ZM25 0H93V537H25Z" glyph-name="iacute" horiz-adv-x="120" unicode="&#237;" /><glyph d="M36 564H84L121 601V662H81V602H39V662H-1V601ZM25 0H93V537H25Z" glyph-name="ibreve" horiz-adv-x="120" unicode="&#301;" /><glyph d="M31 629H-4V565H28L60 628L93 565H124V629H89L69 693H51ZM25 0H93V537H25Z" glyph-name="icircumflex" horiz-adv-x="120" unicode="&#238;" /><glyph d="M0 572H44V640H0ZM76 572H120V640H76ZM25 0H93V537H25Z" glyph-name="idieresis" horiz-adv-x="120" unicode="&#239;" /><glyph d="M52 565H98V601H62L39 688H-9V626ZM25 0H93V537H25Z" glyph-name="igrave" horiz-adv-x="120" unicode="&#236;" /><glyph d="M22 583H90V649H22ZM133 583H201V649H133ZM22 0H90V537H22ZM97 -223H152L201 -174V537H133V-159H97Z" glyph-name="ij" horiz-adv-x="227" unicode="&#307;" /><glyph d="M-7 579H129V622H-7ZM25 0H93V537H25Z" glyph-name="imacron" horiz-adv-x="120" unicode="&#299;" /><glyph d="M191 198H266L329 261V407L284 452H234L197 415L160 452H85L22 389V243L67 198H117L154 235ZM255 365V266H231L212 285V384H236ZM139 365V266H115L96 285V384H120Z" glyph-name="infinity" horiz-adv-x="351" unicode="&#8734;" /><glyph d="M15 -119H55L125 -49V811H161V879H121L51 809V-51H15Z" glyph-name="integral" horiz-adv-x="176" unicode="&#8747;" /><glyph d="M22 583H90V649H22ZM72 -154H105V-76H54V0H90V537H22V-104Z" glyph-name="iogonek" horiz-adv-x="120" unicode="&#303;" /><glyph d="M77 566H111L139 594V659H99V608H81L47 659H12L-16 631V566H24V617H43ZM25 0H93V537H25Z" glyph-name="itilde" horiz-adv-x="120" unicode="&#297;" /><glyph d="M32 583H100V649H32ZM-4 -223H51L100 -174V537H32V-159H-4Z" glyph-name="j" horiz-adv-x="122" unicode="j" /><glyph d="M37 629H2V565H34L66 628L99 565H130V629H95L75 693H57ZM47 -223 100 -172V537H32V-159H-4V-223Z" glyph-name="jcircumflex" horiz-adv-x="122" unicode="&#309;" /><glyph d="M145 0H212L146 268L212 537H145L92 319H90V760H22V0H90V215H92Z" glyph-name="k" horiz-adv-x="221" unicode="k" /><glyph d="M145 0H212L146 268L212 537H145L92 319H90V760H22V0H90V215H92ZM105 -154 154 -106V-33H98V-119H62V-154Z" glyph-name="kcommaaccent" horiz-adv-x="221" unicode="&#311;" /><glyph d="M22 0H90V760H22Z" glyph-name="l" horiz-adv-x="112" unicode="l" /><glyph d="M77 788 138 849V911H90L67 824H31V788ZM22 0H90V760H22Z" glyph-name="lacute" horiz-adv-x="120" unicode="&#314;" /><glyph d="M22 0H90V760H22ZM145 628 189 672V760H139V661H115V628Z" glyph-name="lcaron" horiz-adv-x="120" unicode="&#318;" /><glyph d="M18 0H86V760H18ZM55 -154 104 -106V-33H48V-119H12V-154Z" glyph-name="lcommaaccent" horiz-adv-x="120" unicode="&#316;" /><glyph d="M22 0H90V760H22ZM116 286H196V365H116Z" glyph-name="ldot" horiz-adv-x="208" unicode="&#320;" /><glyph d="M23 293 276 135V210L95 324V325L276 439V514L23 356Z" glyph-name="less" horiz-adv-x="304" unicode="&lt;" /><glyph d="M23 356 276 199V274L95 387V388L276 501V576L23 419ZM23 226 276 69V144L23 301Z" glyph-name="lessequal" horiz-adv-x="304" unicode="&#8804;" /><glyph d="M110 0H161V64H139L107 96V696H147V391L121 271V195H136L207 373V710L157 760H89L39 710V124L9 66V-28L53 57Z" glyph-name="litre" horiz-adv-x="227" unicode="&#8467;" /><glyph d="M161 200H226V357H25V293H161Z" glyph-name="logicalnot" horiz-adv-x="251" unicode="&#172;" /><glyph d="M109 -119H186L282 380L186 879H109L13 380ZM205 380 148 63H147L90 380L147 697H148Z" glyph-name="lozenge" horiz-adv-x="295" unicode="&#9674;" /><glyph d="M26 0H94V337L128 385V441L94 393V760H26V297L-8 250V194L26 241Z" glyph-name="lslash" horiz-adv-x="120" unicode="&#322;" /><glyph d="M238 0H306V496L265 537H216L191 512L166 537H117L90 510V537H22V0H90V473H130V0H198V473H238Z" glyph-name="m" horiz-adv-x="328" unicode="m" /><glyph d="M37 579H173V622H37Z" glyph-name="macron" horiz-adv-x="210" unicode="&#175;" /><glyph d="M25 293H226V357H25Z" glyph-name="minus" horiz-adv-x="251" unicode="&#8722;" /><glyph d="M19 -223H87V27L113 0H153L178 25L203 0H241V64H195V537H127V64H87V537H19Z" glyph-name="mu" horiz-adv-x="254" unicode="&#181;" /><glyph d="M125 277 215 171V269L167 325L215 381V479L125 373L35 479V381L83 325L35 269V171Z" glyph-name="multiply" horiz-adv-x="251" unicode="&#215;" /><glyph d="M130 0H198V499L160 537H117L90 510V537H22V0H90V473H130Z" glyph-name="n" horiz-adv-x="220" unicode="n" /><glyph d="M131 565 192 626V688H144L121 601H85V565ZM130 0H198V499L160 537H117L90 510V537H22V0H90V473H130Z" glyph-name="nacute" horiz-adv-x="220" unicode="&#324;" /><glyph d="M146 621H181V685H149L117 622L84 685H53V621H88L108 557H126ZM130 0H198V499L160 537H117L90 510V537H22V0H90V473H130Z" glyph-name="ncaron" horiz-adv-x="220" unicode="&#328;" /><glyph d="M130 0H198V499L160 537H117L90 510V537H22V0H90V473H130ZM111 -154 160 -106V-33H104V-119H68V-154Z" glyph-name="ncommaaccent" horiz-adv-x="220" unicode="&#326;" /><glyph d="M80 0H161L216 53V707L162 760H79L25 707V392L71 346H118L142 370V68H99V205H25V53ZM142 692V414H99V692Z" glyph-name="nine" horiz-adv-x="241" unicode="9" /><glyph d="M85 0H166L221 53V707L167 760H84L30 707V392L76 346H123L147 370V68H104V205H30V53ZM147 692V414H104V692Z" glyph-name="nine.LT" horiz-adv-x="251" unicode="&#57573;" /><glyph d="M103 227H226V291H130L159 359H226V423H186L217 498H179L148 423H25V359H121L92 291H25V227H65L34 152H72Z" glyph-name="notequal" horiz-adv-x="251" unicode="&#8800;" /><glyph d="M134 566H168L196 594V659H156V608H138L104 659H69L41 631V566H81V617H100ZM130 0H198V499L160 537H117L90 510V537H22V0H90V473H130Z" glyph-name="ntilde" horiz-adv-x="220" unicode="&#241;" /><glyph d="M172 207H211V261H177L199 499H237V553H204L224 760H176L156 553H122L142 760H94L74 553H36V499H69L47 261H10V207H42L23 0H71L90 207H124L105 0H153ZM151 499 129 261H95L117 499Z" glyph-name="numbersign" horiz-adv-x="247" unicode="#" /><glyph d="M174 207H213V261H179L201 499H239V553H206L226 760H178L158 553H124L144 760H96L76 553H38V499H71L49 261H12V207H44L25 0H73L92 207H126L107 0H155ZM153 499 131 261H97L119 499Z" glyph-name="numbersign.LT" horiz-adv-x="251" unicode="&#57579;" /><glyph d="M169 0H243V760H169V360H167L99 760H25V0H99V399H101ZM326 380H389L431 422V718L389 760H326L284 718V422ZM375 707V433H340V707ZM284 157H431V221H284Z" glyph-name="numero" horiz-adv-x="454" unicode="&#8470;" /><glyph d="M71 0H149L198 49V488L149 537H71L22 488V49ZM130 473V64H90V473Z" glyph-name="o" horiz-adv-x="220" unicode="o" /><glyph d="M126 565 187 626V688H139L116 601H80V565ZM71 0H149L198 49V488L149 537H71L22 488V49ZM130 473V64H90V473Z" glyph-name="oacute" horiz-adv-x="220" unicode="&#243;" /><glyph d="M90 564H138L175 601V662H135V602H93V662H53V601ZM71 0H149L198 49V488L149 537H71L22 488V49ZM130 473V64H90V473Z" glyph-name="obreve" horiz-adv-x="220" unicode="&#335;" /><glyph d="M86 629H51V565H83L115 628L148 565H179V629H144L124 693H106ZM71 0H149L198 49V488L149 537H71L22 488V49ZM130 473V64H90V473Z" glyph-name="ocircumflex" horiz-adv-x="220" unicode="&#244;" /><glyph d="M55 572H99V640H55ZM131 572H175V640H131ZM71 0H149L198 49V488L149 537H71L22 488V49ZM130 473V64H90V473Z" glyph-name="odieresis" horiz-adv-x="220" unicode="&#246;" /><glyph d="M257 0 306 48V150H238V64H198V237H306V490L257 537H194L164 507L134 537H71L22 489V48L71 0H134L164 29L194 0ZM130 473V64H90V473ZM238 473V301H198V473Z" glyph-name="oe" horiz-adv-x="328" unicode="&#339;" /><glyph d="M113 -154H146V-76H95V11H63V-104Z" glyph-name="ogonek" horiz-adv-x="210" unicode="&#731;" /><glyph d="M103 565H149V601H113L90 688H42V626ZM71 0H149L198 49V488L149 537H71L22 488V49ZM130 473V64H90V473Z" glyph-name="ograve" horiz-adv-x="220" unicode="&#242;" /><glyph d="M60 565H84L117 598V651H75V594H60ZM138 565H162L195 598V651H153V594H138ZM71 0H149L198 49V488L149 537H71L22 488V49ZM130 473V64H90V473Z" glyph-name="ohungarumlaut" horiz-adv-x="220" unicode="&#337;" /><glyph d="M46 579H182V622H46ZM71 0H149L198 49V488L149 537H71L22 488V49ZM130 473V64H90V473Z" glyph-name="omacron" horiz-adv-x="220" unicode="&#333;" /><glyph d="M56 0H130V760H92L43 666H11V600H56Z" glyph-name="one" horiz-adv-x="159" unicode="1" /><glyph d="M93 0H167V760H129L80 666H48V600H93Z" glyph-name="one.LT" horiz-adv-x="251" unicode="&#57585;" /><glyph d="M41 0H109L289 760H221ZM50 380H95V760H73L43 702H23V657H50ZM212 1H329V46H257V154H289L329 194V346L294 381H247L212 346V269H257V336H284V199H250L212 161Z" glyph-name="onehalf" horiz-adv-x="357" unicode="&#189;" /><glyph d="M43 0H111L291 760H223ZM50 380H95V760H73L43 702H23V657H50ZM262 1H307V93H323V138H307V381H246L190 138V93H262ZM262 272V138H230Z" glyph-name="onequarter" horiz-adv-x="346" unicode="&#188;" /><glyph d="M50 380H95V760H73L43 702H23V657H50Z" glyph-name="onesuperior" horiz-adv-x="130" unicode="&#185;" /><glyph d="M36 0H104L284 760H216ZM45 380H90V760H68L38 702H18V657H45ZM240 0H291L324 33V166L299 191L324 216V347L291 380H240L207 347V278H252V335H279V213H243V168H279V45H252V102H207V33Z" glyph-name="onethird" horiz-adv-x="347" unicode="&#8531;" /><glyph d="M113 380H169V718L127 760H64L22 718V649H78V707H113V596H63L22 555V412L54 380H89L113 404ZM113 544V433H78V544ZM22 157H169V221H22Z" glyph-name="ordfeminine" horiz-adv-x="191" unicode="&#170;" /><glyph d="M64 380H127L169 422V718L127 760H64L22 718V422ZM113 707V433H78V707ZM22 157H169V221H22Z" glyph-name="ordmasculine" horiz-adv-x="191" unicode="&#186;" /><glyph d="M54 0H149L198 49V488L165 520L168 537H71L22 488V49L56 14ZM132 480 82 172V480ZM138 358V57H87Z" glyph-name="oslash" horiz-adv-x="220" unicode="&#248;" /><glyph d="M126 565 187 626V688H139L116 601H80V565ZM54 0H149L198 49V488L165 520L168 537H71L22 488V49L56 14ZM132 480 82 172V480ZM138 358V57H87Z" glyph-name="oslashacute" horiz-adv-x="220" unicode="&#511;" /><glyph d="M130 566H164L192 594V659H152V608H134L100 659H65L37 631V566H77V617H96ZM71 0H149L198 49V488L149 537H71L22 488V49ZM130 473V64H90V473Z" glyph-name="otilde" horiz-adv-x="220" unicode="&#245;" /><glyph d="M22 -223H90V27L117 0H160L198 38V499L160 537H117L90 510V537H22ZM130 473V64H90V473Z" glyph-name="p" horiz-adv-x="220" unicode="p" /><glyph d="M238 -223H312V692H350V760H86L25 700V327L86 266H121V-223H195V692H238Z" glyph-name="paragraph" horiz-adv-x="370" unicode="&#182;" /><glyph d="M102 -223H141V-155H105V692H141V760H102L31 634V-97Z" glyph-name="parenleft" horiz-adv-x="150" unicode="(" /><glyph d="M10 -223H49L120 -97V634L49 760H10V692H46V-155H10Z" glyph-name="parenright" horiz-adv-x="150" unicode=")" /><glyph d="M71 0H149L198 48V702L140 760H22V696H130V510L103 537H64L22 496V48ZM130 473V64H90V473Z" glyph-name="partialdiff" horiz-adv-x="220" unicode="&#8706;" /><glyph d="M120 0 300 760H232L52 0ZM58 444H111L145 478V726L111 760H58L24 726V478ZM98 715V489H71V715ZM241 0H294L328 34V282L294 316H241L207 282V34ZM281 271V45H254V271Z" glyph-name="percent" horiz-adv-x="352" unicode="%" /><glyph d="M25 0H105V79H25Z" glyph-name="period" horiz-adv-x="130" unicode="." /><glyph d="M25 286H105V365H25Z" glyph-name="periodcentered" horiz-adv-x="130" unicode="&#183;" /><glyph d="M120 0 300 760H232L52 0ZM58 444H111L145 478V726L111 760H58L24 726V478ZM98 715V489H71V715ZM241 0H294L328 34V282L294 316H241L207 282V34ZM384 0H437L471 34V282L437 316H384L350 282V34ZM424 271V45H397V271ZM281 271V45H254V271Z" glyph-name="perthousand" horiz-adv-x="495" unicode="&#8240;" /><glyph d="M13 64V0H62L111 49V473H151V0H219V473H250V537H13V473H43V64Z" glyph-name="pi" horiz-adv-x="263" unicode="&#960;" /><glyph d="M92 200H159V293H226V357H159V450H92V357H25V293H92Z" glyph-name="plus" horiz-adv-x="251" unicode="+" /><glyph d="M92 303H160V375H226V439H160V510H92V439H25V375H92ZM25 195H226V259H25Z" glyph-name="plusminus" horiz-adv-x="251" unicode="&#177;" /><glyph d="M174 -119H248V811H290V879H15V811H57V-119H131V811H174Z" glyph-name="product" horiz-adv-x="305" unicode="&#8719;" /><glyph d="M223 0 280 57V703L223 760H88L31 703V57L88 0ZM236 721V39H75V721ZM98 172H143V360H180L213 393V555L180 588H98ZM168 549V399H143V549Z" glyph-name="published" horiz-adv-x="311" unicode="&#8471;" /><glyph d="M130 -223H198V537H130V510L103 537H60L22 499V38L60 0H103L130 27ZM130 473V64H90V473Z" glyph-name="q" horiz-adv-x="220" unicode="q" /><glyph d="M94 187H141V372H175L216 413V706L162 760H79L25 706V537H99V692H142V438H126L94 406ZM78 0H158V79H78Z" glyph-name="question" horiz-adv-x="241" unicode="?" /><glyph d="M83 458H163V537H83ZM79 -223H162L216 -169V0H142V-155H99V99H115L147 131V350H100V165H66L25 124V-169Z" glyph-name="questiondown" horiz-adv-x="241" unicode="&#191;" /><glyph d="M83 681H163V760H83ZM79 0H162L216 54V223H142V68H99V322H115L147 354V573H100V388H66L25 347V54Z" glyph-name="questiondown.cap" horiz-adv-x="241" unicode="&#57597;" /><glyph d="M48 568H70L93 666V760H25V666ZM147 568H169L192 666V760H124V666Z" glyph-name="quotedbl" horiz-adv-x="217" unicode="&quot;" /><glyph d="M52 -118 116 -56V74H48V-80H16V-118ZM160 -118 224 -56V74H156V-80H124V-118Z" glyph-name="quotedblbase" horiz-adv-x="244" unicode="&#8222;" /><glyph d="M20 568H88V722H120V760H84L20 698ZM128 568H196V722H228V760H192L128 698Z" glyph-name="quotedblleft" horiz-adv-x="244" unicode="&#8220;" /><glyph d="M52 568 116 630V760H48V606H16V568ZM160 568 224 630V760H156V606H124V568Z" glyph-name="quotedblright" horiz-adv-x="244" unicode="&#8221;" /><glyph d="M20 568H88V722H120V760H84L20 698Z" glyph-name="quoteleft" horiz-adv-x="136" unicode="&#8216;" /><glyph d="M52 568 116 630V760H48V606H16V568Z" glyph-name="quoteright" horiz-adv-x="136" unicode="&#8217;" /><glyph d="M52 -118 116 -56V74H48V-80H16V-118Z" glyph-name="quotesinglbase" horiz-adv-x="136" unicode="&#8218;" /><glyph d="M48 568H70L93 666V760H25V666Z" glyph-name="quotesingle" horiz-adv-x="118" unicode="'" /><glyph d="M22 0H90V473H146V537H117L90 510V537H22Z" glyph-name="r" horiz-adv-x="157" unicode="r" /><glyph d="M103 565 164 626V688H116L93 601H57V565ZM22 0H90V473H146V537H117L90 510V537H22Z" glyph-name="racute" horiz-adv-x="157" unicode="&#341;" /><glyph d="M79 0H162L249 811H315V879H183L122 283H120L91 537H19Z" glyph-name="radical" horiz-adv-x="280" unicode="&#8730;" /><glyph d="M116 621H151V685H119L87 622L54 685H23V621H58L78 557H96ZM22 0H90V473H146V537H117L90 510V537H22Z" glyph-name="rcaron" horiz-adv-x="157" unicode="&#345;" /><glyph d="M22 0H90V473H146V537H117L90 510V537H22ZM63 -154 112 -106V-33H56V-119H20V-154Z" glyph-name="rcommaaccent" horiz-adv-x="157" unicode="&#343;" /><glyph d="M223 0 280 57V703L223 760H88L31 703V57L88 0ZM236 721V39H75V721ZM143 360H168V172H213V355L189 380L213 404V555L180 588H98V172H143ZM168 549V399H143V549Z" glyph-name="registered" horiz-adv-x="311" unicode="&#174;" /><glyph d="M83 565H127L158 596V666L127 697H83L52 666V596ZM123 665V597H87V665Z" glyph-name="ring" horiz-adv-x="210" unicode="&#730;" /><glyph d="M71 0H149L198 49V252L149 301H90V473H130V387H198V488L149 537H71L22 488V286L71 237H130V64H90V150H22V49Z" glyph-name="s" horiz-adv-x="220" unicode="s" /><glyph d="M125 565 186 626V688H138L115 601H79V565ZM71 0H149L198 49V252L149 301H90V473H130V387H198V488L149 537H71L22 488V286L71 237H130V64H90V150H22V49Z" glyph-name="sacute" horiz-adv-x="220" unicode="&#347;" /><glyph d="M143 621H178V685H146L114 622L81 685H50V621H85L105 557H123ZM71 0H149L198 49V252L149 301H90V473H130V387H198V488L149 537H71L22 488V286L71 237H130V64H90V150H22V49Z" glyph-name="scaron" horiz-adv-x="220" unicode="&#353;" /><glyph d="M62 -154H95L145 -104V0H149L198 49V252L149 301H90V473H130V387H198V488L149 537H71L22 488V286L71 237H130V64H90V150H22V49L71 0H113V-76H62Z" glyph-name="scedilla" horiz-adv-x="220" unicode="&#351;" /><glyph d="M71 0H149L198 49V488L149 537H71L22 488V387H90V473H130V301H22V49ZM130 237V64H90V237Z" glyph-name="schwa" horiz-adv-x="220" unicode="&#601;" /><glyph d="M85 629H50V565H82L114 628L147 565H178V629H143L123 693H105ZM71 0H149L198 49V252L149 301H90V473H130V387H198V488L149 537H71L22 488V286L71 237H130V64H90V150H22V49Z" glyph-name="scircumflex" horiz-adv-x="220" unicode="&#349;" /><glyph d="M71 0H149L198 49V252L149 301H90V473H130V387H198V488L149 537H71L22 488V286L71 237H130V64H90V150H22V49ZM107 -154 156 -106V-33H100V-119H64V-154Z" glyph-name="scommaaccent" horiz-adv-x="220" unicode="&#537;" /><glyph d="M79 -223H158L207 -174V85L167 125L207 165V408L161 454H98V697H139V581H207V711L158 760H79L30 711V452L70 412L30 372V129L76 83H139V-160H98V-44H30V-174ZM139 391V146H98V391Z" glyph-name="section" horiz-adv-x="237" unicode="&#167;" /><glyph d="M24 458H104V537H24ZM23 -151 102 -72V68H28V-110H-16V-151Z" glyph-name="semicolon" horiz-adv-x="129" unicode=";" /><glyph d="M51 380H103L134 411V560L103 591H65V720H89V659H134V729L103 760H51L20 729V582L51 551H89V420H65V482H20V411ZM286 380H331V760H265L245 569H243L223 760H157V380H202V646H204L232 380H257L285 646H286Z" glyph-name="servicemark" horiz-adv-x="351" unicode="&#8480;" /><glyph d="M56 0H130V357L193 473V760H11V692H119V485L56 370Z" glyph-name="seven" horiz-adv-x="207" unicode="7" /><glyph d="M71 0H145V357L208 473V760H26V692H134V485L71 370Z" glyph-name="seven.LT" horiz-adv-x="251" unicode="&#57603;" /><glyph d="M79 0H162L216 53V368L170 414H123L99 390V692H142V555H216V707L161 760H80L25 707V53ZM142 346V68H99V346Z" glyph-name="six" horiz-adv-x="241" unicode="6" /><glyph d="M84 0H167L221 53V368L175 414H128L104 390V692H147V555H221V707L166 760H85L30 707V53ZM147 346V68H104V346Z" glyph-name="six.LT" horiz-adv-x="251" unicode="&#57609;" /><glyph d="M0 -223H75L217 760H142Z" glyph-name="slash" horiz-adv-x="217" unicode="/" /><glyph glyph-name="space" horiz-adv-x="110" unicode=" " /><glyph d="M14 0H187L238 52V215H170V64H115V363H174V397H115V696H143V545H211V710L161 760H97L47 710V397H14V363H47V64H14Z" glyph-name="sterling" horiz-adv-x="251" unicode="&#163;" /><glyph d="M10 0H183L234 52V215H166V64H111V363H170V397H111V696H139V545H207V710L157 760H93L43 710V397H10V363H43V64H10Z" glyph-name="sterling.LT" horiz-adv-x="251" unicode="&#57615;" /><glyph d="M20 -119H271V-51H99L235 358V402L99 811H271V879H20V811L164 380L20 -51Z" glyph-name="summation" horiz-adv-x="271" unicode="&#8721;" /><glyph d="M81 0H139V64H100V473H139V537H100V609H68L14 522V473H32V49Z" glyph-name="t" horiz-adv-x="157" unicode="t" /><glyph d="M81 0H139V64H100V252H137V285H100V473H139V537H100V609H68L14 522V473H32V285H18V252H32V49Z" glyph-name="tbar" horiz-adv-x="157" unicode="&#359;" /><glyph d="M146 568 190 612V700H140V601H116V568ZM81 0H139V64H100V473H139V537H100V609H68L14 522V473H32V49Z" glyph-name="tcaron" horiz-adv-x="157" unicode="&#357;" /><glyph d="M81 0H139V64H100V473H139V537H100V609H68L14 522V473H32V49ZM83 -154 132 -106V-33H76V-119H40V-154Z" glyph-name="tcommaaccent" horiz-adv-x="157" unicode="&#355;" /><glyph glyph-name="thinspace" horiz-adv-x="50" unicode="&#8201;" /><glyph d="M22 -223H90V27L117 0H160L198 38V499L160 537H117L90 510V760H22ZM130 473V64H90V473Z" glyph-name="thorn" horiz-adv-x="220" unicode="&#254;" /><glyph d="M80 0H161L216 53V346L181 381L216 415V707L162 760H79L25 707V555H99V692H142V414H84V346H142V68H99V205H25V53Z" glyph-name="three" horiz-adv-x="241" unicode="3" /><glyph d="M85 0H166L221 53V346L186 381L221 415V707L167 760H84L30 707V555H104V692H147V414H89V346H147V68H104V205H30V53Z" glyph-name="three.LT" horiz-adv-x="251" unicode="&#57620;" /><glyph d="M73 0H141L321 760H253ZM62 380H113L146 413V546L121 571L146 596V727L113 760H62L29 727V658H74V715H101V593H65V548H101V425H74V482H29V413ZM294 1H339V93H355V138H339V381H278L222 138V93H294ZM294 272V138H262Z" glyph-name="threequarters" horiz-adv-x="378" unicode="&#190;" /><glyph d="M62 380H113L146 413V546L121 571L146 596V727L113 760H62L29 727V658H74V715H101V593H65V548H101V425H74V482H29V413Z" glyph-name="threesuperior" horiz-adv-x="176" unicode="&#179;" /><glyph d="M120 566H154L182 594V659H142V608H124L90 659H55L27 631V566H67V617H86Z" glyph-name="tilde" horiz-adv-x="210" unicode="&#732;" /><glyph d="M51 380H96V720H130V760H17V720H51ZM279 380H324V760H258L238 569H236L216 760H150V380H195V646H197L225 380H250L278 646H279Z" glyph-name="trademark" horiz-adv-x="344" unicode="&#8482;" /><glyph d="M25 0H216V68H99V318H158L216 375V707L162 760H79L25 707V541H99V692H142V386H95L25 316Z" glyph-name="two" horiz-adv-x="241" unicode="2" /><glyph d="M30 0H221V68H104V318H163L221 375V707L167 760H84L30 707V541H104V692H147V386H100L30 316Z" glyph-name="two.LT" horiz-adv-x="251" unicode="&#57627;" /><glyph d="M29 380H146V425H74V533H106L146 573V725L111 760H64L29 725V648H74V715H101V578H67L29 540Z" glyph-name="twosuperior" horiz-adv-x="175" unicode="&#178;" /><glyph d="M67 0H135L315 760H247ZM24 380H141V425H69V533H101L141 573V725L106 760H59L24 725V648H69V715H96V578H62L24 540ZM271 0H322L355 33V166L330 191L355 216V347L322 380H271L238 347V278H283V335H310V213H274V168H310V45H283V102H238V33Z" glyph-name="twothirds" horiz-adv-x="378" unicode="&#8532;" /><glyph d="M130 0H198V537H130V64H90V537H22V38L60 0H103L130 27Z" glyph-name="u" horiz-adv-x="220" unicode="u" /><glyph d="M131 565 192 626V688H144L121 601H85V565ZM130 0H198V537H130V64H90V537H22V38L60 0H103L130 27Z" glyph-name="uacute" horiz-adv-x="220" unicode="&#250;" /><glyph d="M94 564H142L179 601V662H139V602H97V662H57V601ZM130 0H198V537H130V64H90V537H22V38L60 0H103L130 27Z" glyph-name="ubreve" horiz-adv-x="220" unicode="&#365;" /><glyph d="M89 629H54V565H86L118 628L151 565H182V629H147L127 693H109ZM130 0H198V537H130V64H90V537H22V38L60 0H103L130 27Z" glyph-name="ucircumflex" horiz-adv-x="220" unicode="&#251;" /><glyph d="M59 572H103V640H59ZM135 572H179V640H135ZM130 0H198V537H130V64H90V537H22V38L60 0H103L130 27Z" glyph-name="udieresis" horiz-adv-x="220" unicode="&#252;" /><glyph d="M107 565H153V601H117L94 688H46V626ZM130 0H198V537H130V64H90V537H22V38L60 0H103L130 27Z" glyph-name="ugrave" horiz-adv-x="220" unicode="&#249;" /><glyph d="M64 565H88L121 598V651H79V594H64ZM142 565H166L199 598V651H157V594H142ZM130 0H198V537H130V64H90V537H22V38L60 0H103L130 27Z" glyph-name="uhungarumlaut" horiz-adv-x="221" unicode="&#369;" /><glyph d="M50 579H186V622H50ZM130 0H198V537H130V64H90V537H22V38L60 0H103L130 27Z" glyph-name="umacron" horiz-adv-x="220" unicode="&#363;" /><glyph d="M25 -144H291V-80H25Z" glyph-name="underscore" horiz-adv-x="316" unicode="_" /><glyph d="M180 -154H213V-76H162V0H198V537H130V64H90V537H22V38L60 0H103L130 27V-104Z" glyph-name="uogonek" horiz-adv-x="221" unicode="&#371;" /><glyph d="M96 565H140L171 596V666L140 697H96L65 666V596ZM136 665V597H100V665ZM130 0H198V537H130V64H90V537H22V38L60 0H103L130 27Z" glyph-name="uring" horiz-adv-x="220" unicode="&#367;" /><glyph d="M133 566H167L195 594V659H155V608H137L103 659H68L40 631V566H80V617H99ZM130 0H198V537H130V64H90V537H22V38L60 0H103L130 27Z" glyph-name="utilde" horiz-adv-x="220" unicode="&#361;" /><glyph d="M75 0H145L206 537H142L111 233H109L76 537H12Z" glyph-name="v" horiz-adv-x="218" unicode="v" /><glyph d="M194 0H258L319 537H255L222 233H220L189 537H142L111 233H109L76 537H12L73 0H137L164 293H166Z" glyph-name="w" horiz-adv-x="331" unicode="w" /><glyph d="M186 565 247 626V688H199L176 601H140V565ZM194 0H258L319 537H255L222 233H220L189 537H142L111 233H109L76 537H12L73 0H137L164 293H166Z" glyph-name="wacute" horiz-adv-x="331" unicode="&#7811;" /><glyph d="M139 629H104V565H136L168 628L201 565H232V629H197L177 693H159ZM194 0H258L319 537H255L222 233H220L189 537H142L111 233H109L76 537H12L73 0H137L164 293H166Z" glyph-name="wcircumflex" horiz-adv-x="331" unicode="&#373;" /><glyph d="M109 572H153V640H109ZM185 572H229V640H185ZM194 0H258L319 537H255L222 233H220L189 537H142L111 233H109L76 537H12L73 0H137L164 293H166Z" glyph-name="wdieresis" horiz-adv-x="331" unicode="&#7813;" /><glyph d="M150 565H196V601H160L137 688H89V626ZM194 0H258L319 537H255L222 233H220L189 537H142L111 233H109L76 537H12L73 0H137L164 293H166Z" glyph-name="wgrave" horiz-adv-x="331" unicode="&#7809;" /><glyph d="M154 0H220L153 269L220 537H154L116 377H115L77 537H11L78 269L11 0H77L115 161H116Z" glyph-name="x" horiz-adv-x="232" unicode="x" /><glyph d="M35 -223H97L206 537H142L110 288H109L76 537H12L78 75Z" glyph-name="y" horiz-adv-x="218" unicode="y" /><glyph d="M126 565 187 626V688H139L116 601H80V565ZM35 -223H97L206 537H142L110 288H109L76 537H12L78 75Z" glyph-name="yacute" horiz-adv-x="218" unicode="&#253;" /><glyph d="M84 629H49V565H81L113 628L146 565H177V629H142L122 693H104ZM35 -223H97L206 537H142L110 288H109L76 537H12L78 75Z" glyph-name="ycircumflex" horiz-adv-x="218" unicode="&#375;" /><glyph d="M55 572H99V640H55ZM131 572H175V640H131ZM35 -223H97L206 537H142L110 288H109L76 537H12L78 75Z" glyph-name="ydieresis" horiz-adv-x="218" unicode="&#255;" /><glyph d="M91 0H159V207H205V241H159V295H205V329H162L236 760H170L126 486H124L80 760H14L88 329H45V295H91V241H45V207H91Z" glyph-name="yen" horiz-adv-x="250" unicode="&#165;" /><glyph d="M91 0H159V207H205V241H159V295H205V329H162L236 760H170L126 486H124L80 760H14L88 329H45V295H91V241H45V207H91Z" glyph-name="yen.LT" horiz-adv-x="251" unicode="&#57639;" /><glyph d="M101 565H147V601H111L88 688H40V626ZM35 -223H97L206 537H142L110 288H109L76 537H12L78 75Z" glyph-name="ygrave" horiz-adv-x="218" unicode="&#7923;" /><glyph d="M14 0H181V64H83L181 473V537H14V473H113L14 64Z" glyph-name="z" horiz-adv-x="195" unicode="z" /><glyph d="M116 565 177 626V688H129L106 601H70V565ZM14 0H181V64H83L181 473V537H14V473H113L14 64Z" glyph-name="zacute" horiz-adv-x="195" unicode="&#378;" /><glyph d="M134 621H169V685H137L105 622L72 685H41V621H76L96 557H114ZM14 0H181V64H83L181 473V537H14V473H113L14 64Z" glyph-name="zcaron" horiz-adv-x="195" unicode="&#382;" /><glyph d="M76 583H144V649H76ZM14 0H181V64H83L181 473V537H14V473H113L14 64Z" glyph-name="zdotaccent" horiz-adv-x="195" unicode="&#380;" /><glyph d="M80 0H161L216 70V690L162 760H80L25 690V70ZM142 692V68H99V692Z" glyph-name="zero" horiz-adv-x="241" unicode="0" /><glyph d="M85 0H166L221 70V690L167 760H85L30 690V70ZM147 692V68H104V692Z" glyph-name="zero.LT" horiz-adv-x="251" unicode="&#57644;" /><glyph d="M61 0H161L216 70V690L178 739L181 760H80L25 690V70L64 21ZM145 694 97 293H96V694ZM145 466V66H96Z" glyph-name="zero.slash" horiz-adv-x="241" unicode="&#57647;" /><glyph d="M66 0H166L221 70V690L183 739L186 760H85L30 690V70L69 21ZM150 694 102 293H101V694ZM150 466V66H101Z" glyph-name="zero.slashLT" horiz-adv-x="251" unicode="&#57649;" /></font>
</defs>
</svg>
